<svg width="128" height="128" viewBox="0 0 128 128" fill="none" xmlns="http://www.w3.org/2000/svg">
    <g clip-path="url(#clip0_2285_130376)">
        <g clip-path="url(#clip1_2285_130376)">
            <path d="M0 32C0 14.3269 14.3269 0 32 0H96C113.673 0 128 14.3269 128 32V96C128 113.673 113.673 128 96 128H32C14.3269 128 0 113.673 0 96V32Z"
                  fill="url(#paint0_angular_2285_130376)"/>
            <g filter="url(#filter0_d_2285_130376)">
                <path fill-rule="evenodd" clip-rule="evenodd"
                      d="M62.1826 14.5367C61.9585 14.7079 61.822 14.9353 61.822 15.1849V16.1783C61.8153 16.39 61.8161 16.604 61.822 16.8194V33.0942C61.822 33.5191 62.2178 33.8798 62.7674 34.0083C62.8006 34.5033 62.8334 34.9985 62.8656 35.4937C62.9299 36.4842 62.9771 37.4757 63.0127 38.4679V52.5377C62.2314 52.5642 61.4376 52.6278 60.8557 53.0354C59.5924 53.9201 59.7896 57.222 59.931 59.5893C59.9571 60.0275 59.9814 60.4343 59.9941 60.7872C57.5842 61.413 55.8685 63.0262 55.8685 64.9175V70.2845L55.796 70.2845C53.7019 70.2851 51.6096 70.2856 49.5181 70.235V50.3146C49.5181 48.4886 47.3857 47.0083 44.7553 47.0083H26.101C23.947 47.0083 22.1269 48.001 21.5383 49.3633C21.5116 49.3727 21.4849 49.3821 21.4583 49.3915C21.4579 49.4532 21.4576 49.5148 21.4574 49.5765C21.3794 49.8138 21.3383 50.0609 21.3383 50.3146V100.185C21.3383 100.222 21.3392 100.26 21.3409 100.297C21.325 100.978 21.3781 101.599 21.5519 102.085C22.6569 103.98 42.0661 110.358 45.8632 111.475C46.0765 111.538 46.3887 111.633 46.7711 111.749C49.1022 112.46 54.0402 113.966 55.0669 113.756C55.0887 113.752 55.1106 113.748 55.1324 113.744C55.3967 112.726 55.6871 111.712 55.9774 110.698C56.2572 109.721 56.5374 108.743 56.7938 107.763C56.8969 107.369 56.972 106.973 57.047 106.578C57.215 105.693 57.3824 104.811 57.8615 103.967C58.3179 103.161 59.0141 102.451 60.0448 101.952C61.399 101.296 63.3629 100.913 65.0049 101.121C66.8234 101.352 68.54 102.075 69.5767 103.147C70.785 104.397 71.1028 105.985 71.4055 107.498C71.4873 107.907 71.568 108.31 71.6648 108.7C71.7819 109.17 71.9186 109.638 72.0553 110.107C72.1905 110.57 72.3257 111.032 72.4419 111.498C72.4802 111.651 72.5136 111.818 72.5484 111.992C72.662 112.562 72.7903 113.204 73.1472 113.65C74.6357 113.578 76.2684 113.034 77.7195 112.549C78.0561 112.437 78.3829 112.328 78.6959 112.229C86.5128 109.752 93.5328 106.931 100.524 103.467C100.859 103.301 101.208 103.136 101.563 102.967C102.789 102.386 104.075 101.776 105.017 101.037C106.03 100.43 106.672 99.5331 106.672 98.5318V50.3146C106.672 48.4886 104.539 47.0083 101.909 47.0083H96.7976C94.5125 46.9285 92.0706 46.9335 89.7434 47.0083H81.6669C80.3862 47.0083 79.2235 47.3592 78.3675 47.9302L78.354 47.9114C78.3161 47.9383 78.281 47.9722 78.2484 48.0124C77.4164 48.6077 76.9041 49.4196 76.9041 50.3146V70.2134C76.8625 70.2157 76.8205 70.218 76.7784 70.2203C76.7146 70.2238 76.6503 70.2274 76.5856 70.231C75.0849 70.314 73.3451 70.4103 72.5382 70.2763V64.9175C72.5382 63.1481 71.0366 61.6222 68.8697 60.9203C69.0679 59.14 69.0845 55.4484 68.8246 54.378C68.6837 53.7972 68.3424 53.1833 67.6053 52.845C66.9945 52.564 66.1904 52.5353 65.4934 52.6395L65.3941 52.6315V33.9601C67.183 33.7667 68.7983 32.9679 70.0121 32.0683C70.5797 31.6476 71.1014 31.1997 71.623 30.7519C72.3352 30.1404 73.0471 29.5292 73.8752 28.988C76.4685 27.2932 83.7429 24.3732 87.159 23.7163C85.1455 23.4011 83.2352 22.9972 81.4845 22.2144C79.7604 21.4435 78.2768 20.5015 76.7733 19.5407C73.129 17.2117 69.8181 15.3147 64.9187 14.4622C64.8268 14.4462 64.7247 14.4269 64.6154 14.4061C64.2429 14.3355 63.7868 14.2491 63.3635 14.2263C63.3134 14.2225 63.2626 14.2206 63.2111 14.2206L63.1887 14.2207C62.9058 14.2183 62.646 14.2511 62.4468 14.3448C62.3359 14.3969 62.25 14.4626 62.1826 14.5367Z"
                      fill="white"/>
            </g>
        </g>
    </g>
    <defs>
        <filter id="filter0_d_2285_130376" x="19.4494" y="12.3317" width="89.1112" height="103.333"
                filterUnits="userSpaceOnUse" color-interpolation-filters="sRGB">
            <feFlood flood-opacity="0" result="BackgroundImageFix"/>
            <feColorMatrix in="SourceAlpha" type="matrix" values="0 0 0 0 0 0 0 0 0 0 0 0 0 0 0 0 0 0 127 0"
                           result="hardAlpha"/>
            <feOffset/>
            <feGaussianBlur stdDeviation="0.944444"/>
            <feComposite in2="hardAlpha" operator="out"/>
            <feColorMatrix type="matrix" values="0 0 0 0 0 0 0 0 0 0.209587 0 0 0 0 0.62876 0 0 0 0.4 0"/>
            <feBlend mode="normal" in2="BackgroundImageFix" result="effect1_dropShadow_2285_130376"/>
            <feBlend mode="normal" in="SourceGraphic" in2="effect1_dropShadow_2285_130376" result="shape"/>
        </filter>
        <radialGradient id="paint0_angular_2285_130376" cx="0" cy="0" r="1" gradientUnits="userSpaceOnUse"
                        gradientTransform="translate(74.6667 74.6667) rotate(50.1944) scale(83.3093)">
            <stop offset="0.0249837" stop-color="#0193E8"/>
            <stop offset="0.507978" stop-color="#17DED8"/>
            <stop offset="0.733289" stop-color="#00D7FF"/>
        </radialGradient>
        <clipPath id="clip0_2285_130376">
            <rect width="128" height="128" fill="white"/>
        </clipPath>
        <clipPath id="clip1_2285_130376">
            <rect width="128" height="128" fill="white"/>
        </clipPath>
    </defs>
</svg>
