<svg width="24" height="25" viewBox="0 0 24 25" fill="none" xmlns="http://www.w3.org/2000/svg">
<path d="M14 4.69098V6.69098H13V7.69098H11V6.69098H10V4.69098H11V3.69098H13V4.69098H14Z" fill="#6B7280"/>
<path d="M21 20.691V19.691H20V10.691H18V19.691H16V10.691H14V19.691H10V10.691H8V19.691H6V10.691H4V19.691H3V20.691H1V22.691H2V23.691H22V22.691H23V20.691H21ZM21 22.691H3V21.691H4V20.691H20V21.691H21V22.691Z" fill="#6B7280"/>
<path d="M22 7.69098V8.69098H21V9.69098H3V8.69098H2V7.69098H4V8.69098H20V7.69098H22Z" fill="#6B7280"/>
<path d="M23 5.69098V7.69098H22V6.69098H19V5.69098H17V4.69098H15V3.69098H13V2.69098H11V3.69098H9V4.69098H7V5.69098H5V6.69098H2V7.69098H1V5.69098H4V4.69098H6V3.69098H8V2.69098H10V1.69098H14V2.69098H16V3.69098H18V4.69098H20V5.69098H23Z" fill="#6B7280"/>
</svg>
