<svg width="16" height="17" viewBox="0 0 16 17" fill="none" xmlns="http://www.w3.org/2000/svg">
<g id="Pixel/Solid/Check Circle">
<path id="Vector" d="M14.6666 6.50033V5.16699H14V3.83366H13.3333V3.16699H12.6666V2.50033H11.3333V1.83366H9.99996V1.16699H5.99996V1.83366H4.66663V2.50033H3.33329V3.16699H2.66663V3.83366H1.99996V5.16699H1.33329V6.50033H0.666626V10.5003H1.33329V11.8337H1.99996V13.167H2.66663V13.8337H3.33329V14.5003H4.66663V15.167H5.99996V15.8337H9.99996V15.167H11.3333V14.5003H12.6666V13.8337H13.3333V13.167H14V11.8337H14.6666V10.5003H15.3333V6.50033H14.6666ZM12 8.50033H11.3333V9.16699H10.6666V9.83366H9.99996V10.5003H9.33329V11.167H8.66663V11.8337H7.99996V12.5003H6.66663V11.8337H5.99996V11.167H5.33329V10.5003H4.66663V9.83366H3.99996V8.50033H4.66663V7.83366H5.99996V8.50033H6.66663V9.16699H7.99996V8.50033H8.66663V7.83366H9.33329V7.16699H9.99996V6.50033H10.6666V5.83366H12V6.50033H12.6666V7.83366H12V8.50033Z" fill="white"/>
</g>
</svg>
