<svg width="38" height="38" viewBox="0 0 38 38" fill="none" xmlns="http://www.w3.org/2000/svg">
<path d="M0 19C0 8.50659 8.50659 0 19 0C29.4934 0 38 8.50659 38 19C38 29.4934 29.4934 38 19 38C8.50659 38 0 29.4934 0 19Z" fill="#3B6273"/>
<path d="M14.8334 17.6665V17.4998H15.0001H15.1667V17.6665V17.8332H15.0001H14.8334V17.6665ZM14.5001 16.9998V17.1665H14.3334H14.1667V16.8332H14.5001V16.9998ZM15.5001 18.3332V18.1665H15.6667H15.8334V18.3332V18.4998H15.6667H15.5001V18.3332ZM16.1667 18.9998V18.8332H16.3334H16.5001V18.9998V19.1665H16.3334H16.1667V18.9998ZM16.8334 19.6665V19.4998H17.0001H17.1667V19.6665V19.8332H17.0001H16.8334V19.6665ZM17.5001 20.3332V20.1665H17.6667H18.3334H18.8334V19.6665V12.1665H19.1667V19.6665V20.1665H19.6667H20.3334H20.5001V20.3332V20.4998H20.3334H19.8334V20.9998V21.1665H19.6667H19.1667V21.6665V21.8332H18.8334V21.6665V21.1665H18.3334H18.1667V20.9998V20.4998H17.6667H17.5001V20.3332ZM21.0001 19.8332H20.8334V19.6665V19.4998H21.0001H21.1667V19.6665V19.8332H21.0001ZM21.6667 19.1665H21.5001V18.9998V18.8332H21.6667H21.8334V18.9998V19.1665H21.6667ZM22.3334 18.4998H22.1667V18.3332V18.1665H22.3334H22.5001V18.3332V18.4998H22.3334ZM23.0001 17.8332H22.8334V17.6665V17.4998H23.0001H23.1667V17.6665V17.8332H23.0001ZM23.6667 17.1665H23.5001V16.9998V16.8332H23.8334V17.1665H23.6667Z" stroke="white"/>
<path d="M12.8333 25.8333V25.5H25.1666V25.8333H12.8333Z" stroke="white"/>
</svg>
