<svg width="20" height="20" viewBox="0 0 20 20" fill="none" xmlns="http://www.w3.org/2000/svg">
    <path fill-rule="evenodd" clip-rule="evenodd"
          d="M11.2121 2.19697H10.6818V2.72727H10.1515V3.25758H9.62121V3.78788H9.09091V4.31818H8.56061V4.84849H8.0303V5.37879H7.5V5.90909H6.9697V6.43939H6.43939V7.5H6.9697V6.9697H8.0303V7.5H8.56061V8.56061H8.0303V9.09091H7.5V9.62121H6.9697V10.1515H6.43939V10.6818H5.90909V11.2121H5.37879V11.7424H4.84848V12.2727H4.31818V12.803H3.78788V13.3333H3.25758V13.8636H2.72727V14.3939H2.19697V15.4545H1.66667V17.0455H2.19697V18.1061H3.25758V18.6364H4.84848V18.1061H5.90909V17.5758H6.43939V17.0455H6.9697V16.5152H7.5V15.9849H8.0303V15.4545H8.56061V14.9242H9.09091V14.3939H9.62121V13.8636H10.1515V13.3333H10.6818V12.803H11.2121V12.2727H11.7424V11.7424H12.803V12.2727H13.3333V13.3333H12.803V14.3939H13.8636V13.8636H14.3939V13.3333H14.9242V12.803H15.4545V12.2727H15.9848V11.7424H16.5152V11.2121H17.0455V10.6818H17.5758V10.1515H18.1061V9.62121H18.6364V9.09091H19.1667V8.56061H18.6364V8.0303H18.1061V8.56061H17.0455V8.0303H16.5152V7.5H15.9848V6.9697H15.4545V6.43939H14.9242V5.90909H14.3939V5.37879H13.8636V4.84849H13.3333V4.31818H12.803V3.78788H12.2727V3.25758H11.7424V2.19697H12.2727V1.66667H11.2121V2.19697ZM10.1515 4.31818H9.62121V4.84849H9.09091V5.37879H8.56061V5.90909H8.0303V6.43939H8.56061V6.9697H9.09091V7.5H9.62121V8.0303H10.1515V8.56061H10.6818V9.09091H11.2121V9.62121H11.7424V10.1515H12.2727V10.6818H12.803V11.2121H13.3333V11.7424H13.8636V12.2727H14.3939V11.7424H14.9242V11.2121H15.4545V10.6818H15.9848V10.1515H16.5152V9.09091H15.9848V8.56061H15.4545V8.0303H14.9242V7.5H14.3939V6.9697H13.8636V6.43939H13.3333V5.90909H12.803V5.37879H12.2727V4.84849H11.7424V4.31818H11.2121V3.78788H10.1515V4.31818ZM9.09091 9.62121H8.56061V10.1515H8.0303V10.6818H7.5V11.2121H6.9697V11.7424H6.43939V12.2727H5.90909V12.803H5.37879V13.3333H4.84848V13.8636H4.31818V14.3939H3.78788V14.9242H3.25758V15.4545H2.72727V17.0455H3.25758V17.5758H4.84848V17.0455H5.37879V16.5152H5.90909V15.9849H6.43939V15.4545H6.9697V14.9242H7.5V14.3939H8.0303V13.8636H8.56061V13.3333H9.09091V12.803H9.62121V12.2727H10.1515V11.7424H10.6818V11.2121H11.2121V10.1515H10.6818V9.62121H10.1515V9.09091H9.09091V9.62121Z"
          fill="white"/>
    <path fill-rule="evenodd" clip-rule="evenodd"
          d="M11.2121 1.66667H12.2727V2.19697H11.7424V3.25758H12.2727V3.78788H12.803V4.31818H13.3333V4.84849H13.8636V5.37879H14.3939V5.90909H14.9242V6.43939H15.4545V6.9697H15.9848V7.5H16.5152V8.0303H17.0455V8.56061H18.1061V8.0303H18.6364V8.56061H19.1667V9.09091H18.6364V9.62121H18.1061V10.1515H17.5758V10.6818H17.0455V11.2121H16.5152V11.7424H15.9848V12.2727H15.4545V12.803H14.9242V13.3333H14.3939V13.8636H13.8636V14.3939H12.803V13.3333H13.3333V12.2727H12.803V11.7424H11.7424V12.2727H11.2121V12.803H10.6818V13.3333H10.1515V13.8636H9.62121V14.3939H9.09091V14.9242H8.56061V15.4545H8.0303V15.9849H7.5V16.5152H6.9697V17.0455H6.43939V17.5758H5.90909V18.1061H4.84848V18.6364H3.25758V18.1061H2.19697V17.0455H1.66667V15.4545H2.19697V14.3939H2.72727V13.8636H3.25758V13.3333H3.78788V12.803H4.31818V12.2727H4.84848V11.7424H5.37879V11.2121H5.90909V10.6818H6.43939V10.1515H6.9697V9.62121H7.5V9.09091H8.0303V8.56061H8.56061V7.5H8.0303V6.9697H6.9697V7.5H6.43939V6.43939H6.9697V5.90909H7.5V5.37879H8.0303V4.84849H8.56061V4.31818H9.09091V3.78788H9.62121V3.25758H10.1515V2.72727H10.6818V2.19697H11.2121V1.66667ZM11.0455 2.0303V1.5H12.4394V2.36364H11.9091V3.09091H12.4394V3.62121H12.9697V4.15152H13.5V4.68182H14.0303V5.21212H14.5606V5.74242H15.0909V6.27273H15.6212V6.80303H16.1515V7.33333H16.6818V7.86364H17.2121V8.39394H17.9394V7.86364H18.803V8.39394H19.3333V9.25758H18.803V9.78788H18.2727V10.3182H17.7424V10.8485H17.2121V11.3788H16.6818V11.9091H16.1515V12.4394H15.6212V12.9697H15.0909V13.5H14.5606V14.0303H14.0303V14.5606H12.6364V13.1667H13.1667V12.4394H12.6364V11.9091H11.9091V12.4394H11.3788V12.9697H10.8485V13.5H10.3182V14.0303H9.78788V14.5606H9.25758V15.0909H8.72727V15.6212H8.19697V16.1515H7.66667V16.6818H7.13636V17.2121H6.60606V17.7424H6.07576V18.2727H5.01515V18.803H3.09091V18.2727H2.0303V17.2121H1.5V15.2879H2.0303V14.2273H2.56061V13.697H3.09091V13.1667H3.62121V12.6364H4.15152V12.1061H4.68182V11.5758H5.21212V11.0455H5.74242V10.5152H6.27273V9.98485H6.80303V9.45455H7.33333V8.92424H7.86364V8.39394H8.39394V7.66667H7.86364V7.13636H7.13636V7.66667H6.27273V6.27273H6.80303V5.74242H7.33333V5.21212H7.86364V4.68182H8.39394V4.15152H8.92424V3.62121H9.45455V3.09091H9.98485V2.56061H10.5152V2.0303H11.0455ZM10.3182 4.48485H9.78788V5.01515H9.25758V5.54545H8.72727V6.07576H8.19697V6.27273H8.72727V6.80303H9.25758V7.33333H9.78788V7.86364H10.3182V8.39394H10.8485V8.92424H11.3788V9.45455H11.9091V9.98485H12.4394V10.5152H12.9697V11.0455H13.5V11.5758H14.0303V12.1061H14.2273V11.5758H14.7576V11.0455H15.2879V10.5152H15.8182V9.98485H16.3485V9.25758H15.8182V8.72727H15.2879V8.19697H14.7576V7.66667H14.2273V7.13636H13.697V6.60606H13.1667V6.07576H12.6364V5.54545H12.1061V5.01515H11.5758V4.48485H11.0455V3.95455H10.3182V4.48485ZM11.2121 3.78788V4.31818H11.7424V4.84849H12.2727V5.37879H12.803V5.90909H13.3333V6.43939H13.8636V6.9697H14.3939V7.5H14.9242V8.0303H15.4545V8.56061H15.9848V9.09091H16.5152V10.1515H15.9848V10.6818H15.4545V11.2121H14.9242V11.7424H14.3939V12.2727H13.8636V11.7424H13.3333V11.2121H12.803V10.6818H12.2727V10.1515H11.7424V9.62121H11.2121V9.09091H10.6818V8.56061H10.1515V8.0303H9.62121V7.5H9.09091V6.9697H8.56061V6.43939H8.0303V5.90909H8.56061V5.37879H9.09091V4.84849H9.62121V4.31818H10.1515V3.78788H11.2121ZM9.25758 9.78788H8.72727V10.3182H8.19697V10.8485H7.66667V11.3788H7.13636V11.9091H6.60606V12.4394H6.07576V12.9697H5.54545V13.5H5.01515V14.0303H4.48485V14.5606H3.95455V15.0909H3.42424V15.6212H2.89394V16.8788H3.42424V17.4091H4.68182V16.8788H5.21212V16.3485H5.74242V15.8182H6.27273V15.2879H6.80303V14.7576H7.33333V14.2273H7.86364V13.697H8.39394V13.1667H8.92424V12.6364H9.45455V12.1061H9.98485V11.5758H10.5152V11.0455H11.0455V10.3182H10.5152V9.78788H9.98485V9.25758H9.25758V9.78788ZM10.1515 9.09091V9.62121H10.6818V10.1515H11.2121V11.2121H10.6818V11.7424H10.1515V12.2727H9.62121V12.803H9.09091V13.3333H8.56061V13.8636H8.0303V14.3939H7.5V14.9242H6.9697V15.4545H6.43939V15.9849H5.90909V16.5152H5.37879V17.0455H4.84848V17.5758H3.25758V17.0455H2.72727V15.4545H3.25758V14.9242H3.78788V14.3939H4.31818V13.8636H4.84848V13.3333H5.37879V12.803H5.90909V12.2727H6.43939V11.7424H6.9697V11.2121H7.5V10.6818H8.0303V10.1515H8.56061V9.62121H9.09091V9.09091H10.1515Z"
          fill="white"/>
</svg>
