<svg xmlns="http://www.w3.org/2000/svg" width="16" height="16" viewBox="0 0 16 16" fill="none">
    <g clip-path="url(#clip0_2360_46290)">
        <path d="M15.3334 6.00033V10.0003H14.6667V11.3337H14.0001V12.667H13.3334V13.3337H12.6667V14.0003H12.0001V14.667H10.6667V15.3337H10.0001V12.0003H9.33341V11.3337H10.0001V10.667H11.3334V10.0003H12.0001V9.33366H12.6667V6.00033H12.0001V4.00033H10.6667V4.66699H10.0001V5.33366H9.33341V4.66699H6.66675V5.33366H6.00008V4.66699H5.33341V4.00033H4.00008V6.00033H3.33341V9.33366H4.00008V10.0003H4.66675V10.667H6.00008V12.0003H4.66675V11.3337H4.00008V10.667H2.66675V11.3337H3.33341V12.667H4.00008V13.3337H6.00008V15.3337H5.33341V14.667H4.00008V14.0003H3.33341V13.3337H2.66675V12.667H2.00008V11.3337H1.33341V10.0003H0.666748V6.00033H1.33341V4.66699H2.00008V3.33366H2.66675V2.66699H3.33341V2.00033H4.66675V1.33366H6.00008V0.666992H10.0001V1.33366H11.3334V2.00033H12.6667V2.66699H13.3334V3.33366H14.0001V4.66699H14.6667V6.00033H15.3334Z"
              fill="white"/>
    </g>
    <defs>
        <clipPath id="clip0_2360_46290">
            <rect width="16" height="16" fill="white"/>
        </clipPath>
    </defs>
</svg>