<svg width="20" height="21" viewBox="0 0 20 21" fill="none" xmlns="http://www.w3.org/2000/svg">
    <path d="M9.99463 17.825C14.0351 17.825 17.3105 14.5446 17.3105 10.4982C17.3105 6.4517 14.0351 3.17139 9.99463 3.17139C5.95416 3.17139 2.67871 6.4517 2.67871 10.4982C2.67871 14.5446 5.95416 17.825 9.99463 17.825Z"
          fill="white"/>
    <path d="M19.0703 6.55357C18.5711 5.34643 17.783 4.22679 16.8736 3.31786C15.9678 2.40714 14.8035 1.72679 13.5963 1.22679C12.4356 0.742857 11.1393 0.5 9.80197 0.5C8.46467 0.5 7.08993 0.548214 5.92916 1.03214C4.7238 1.53214 3.71459 2.48214 2.80701 3.39286C1.89765 4.30357 0.842072 5.26964 0.342814 6.475C-0.140397 7.64107 0.016513 9.06071 0.016513 10.4018C0.016513 11.7429 0.114581 13.0536 0.597792 14.2196C1.09705 15.4268 2.11696 16.2804 3.02276 17.1911C3.93212 18.1018 4.75412 19.1875 5.95947 19.6875C7.12381 20.1714 8.46289 20.5 9.80019 20.5C11.1375 20.5 12.4516 20.1036 13.6159 19.6179C14.8195 19.1179 15.909 18.3357 16.8183 17.4268C17.7277 16.5161 18.457 15.4054 18.9598 14.1982C19.4412 13.0357 19.9922 11.7411 19.9922 10.4018C19.9922 9.0625 19.55 7.72321 19.0668 6.55714L19.0703 6.55357ZM12.605 16.1054L10.4867 15.7929L11.0911 11.6857L6.65665 15.1071L5.35144 13.4L9.24209 10.4L5.35144 7.39821L6.65665 5.69107L11.0911 9.1125L10.4867 5.00714L12.605 4.69107L13.4483 10.4018L12.605 16.1089V16.1054Z"
          fill="#6FC7BA"/>
</svg>
