<svg width="179" height="32" viewBox="0 0 179 32" fill="none" xmlns="http://www.w3.org/2000/svg">
<g clip-path="url(#clip0_2396_79432)">
<g clip-path="url(#clip1_2396_79432)">
<path d="M0 8C0 3.58172 3.58172 0 8 0H24C28.4183 0 32 3.58172 32 8V24C32 28.4183 28.4183 32 24 32H8C3.58172 32 0 28.4183 0 24V8Z" fill="url(#paint0_angular_2396_79432)"/>
<g filter="url(#filter0_d_2396_79432)">
<path fill-rule="evenodd" clip-rule="evenodd" d="M15.5457 3.63417C15.4896 3.67698 15.4555 3.73384 15.4555 3.79623V4.04459C15.4538 4.0975 15.454 4.151 15.4555 4.20484V8.27354C15.4555 8.37976 15.5544 8.46994 15.6919 8.50207C15.7001 8.62584 15.7083 8.74962 15.7164 8.87342C15.7325 9.12106 15.7443 9.36894 15.7532 9.61698V13.1344C15.5578 13.141 15.3594 13.1569 15.2139 13.2588C14.8981 13.48 14.9474 14.3055 14.9827 14.8973C14.9893 15.0069 14.9953 15.1086 14.9985 15.1968C14.396 15.3533 13.9671 15.7565 13.9671 16.2294V17.5711L13.949 17.5711C13.4255 17.5713 12.9024 17.5714 12.3795 17.5587V12.5786C12.3795 12.1221 11.8464 11.7521 11.1888 11.7521H6.52525C5.98673 11.7521 5.53171 12.0002 5.38457 12.3408C5.37789 12.3432 5.37122 12.3455 5.36456 12.3479C5.36447 12.3633 5.3644 12.3787 5.36434 12.3941C5.34485 12.4535 5.33456 12.5152 5.33456 12.5786V25.0462C5.33456 25.0556 5.33478 25.0649 5.33523 25.0742C5.33125 25.2445 5.34452 25.3997 5.38798 25.5212C5.66422 25.9951 10.5165 27.5895 11.4658 27.8687C11.5191 27.8844 11.5972 27.9082 11.6928 27.9374C12.2755 28.1151 13.5101 28.4916 13.7667 28.4391C13.7722 28.438 13.7776 28.437 13.7831 28.436C13.8492 28.1816 13.9218 27.9281 13.9943 27.6746C14.0643 27.4304 14.1343 27.1857 14.1984 26.9407C14.2242 26.8423 14.243 26.7433 14.2617 26.6446C14.3037 26.4233 14.3456 26.2029 14.4654 25.9916C14.5795 25.7904 14.7535 25.6127 15.0112 25.4879C15.3497 25.3239 15.8407 25.2282 16.2512 25.2803C16.7059 25.3379 17.135 25.5188 17.3942 25.7868C17.6962 26.0992 17.7757 26.4963 17.8514 26.8745C17.8718 26.9767 17.892 27.0776 17.9162 27.1749C17.9455 27.2926 17.9797 27.4096 18.0138 27.5266C18.0476 27.6424 18.0814 27.7581 18.1105 27.8744C18.12 27.9127 18.1284 27.9545 18.1371 27.9981C18.1655 28.1404 18.1976 28.3011 18.2868 28.4125C18.6589 28.3946 19.0671 28.2584 19.4299 28.1373C19.514 28.1092 19.5957 28.082 19.674 28.0572C21.6282 27.4381 23.3832 26.7329 25.1309 25.8668C25.2146 25.8253 25.302 25.7839 25.3907 25.7418C25.6972 25.5964 26.0188 25.4439 26.2544 25.2592C26.5076 25.1076 26.6679 24.8833 26.6679 24.6329V12.5786C26.6679 12.1221 26.1348 11.7521 25.4772 11.7521H24.1994C23.6281 11.7321 23.0177 11.7334 22.4358 11.7521H20.4167C20.0965 11.7521 19.8059 11.8398 19.5919 11.9825L19.5885 11.9779C19.579 11.9846 19.5702 11.993 19.5621 12.0031C19.3541 12.1519 19.226 12.3549 19.226 12.5786V17.5534C19.2156 17.5539 19.2051 17.5545 19.1946 17.5551C19.1786 17.556 19.1626 17.5568 19.1464 17.5577C18.7712 17.5785 18.3363 17.6026 18.1346 17.5691V16.2294C18.1346 15.787 17.7591 15.4055 17.2174 15.2301C17.267 14.785 17.2711 13.8621 17.2061 13.5945C17.1709 13.4493 17.0856 13.2958 16.9013 13.2112C16.7486 13.141 16.5476 13.1338 16.3734 13.1599L16.3485 13.1579V8.49003C16.7958 8.44169 17.1996 8.24197 17.503 8.01708C17.6449 7.91191 17.7754 7.79993 17.9057 7.68798C18.0838 7.53511 18.2618 7.3823 18.4688 7.24699C19.1171 6.8233 20.9357 6.09329 21.7897 5.92907C21.2864 5.85027 20.8088 5.74929 20.3711 5.5536C19.9401 5.36087 19.5692 5.12536 19.1933 4.88517C18.2822 4.30292 17.4545 3.82866 16.2297 3.61554C16.2067 3.61155 16.1812 3.60671 16.1538 3.60154C16.0607 3.58389 15.9467 3.56228 15.8409 3.55658C15.8284 3.55563 15.8156 3.55515 15.8028 3.55515L15.7972 3.55518C15.7264 3.55457 15.6615 3.56277 15.6117 3.5862C15.584 3.59924 15.5625 3.61564 15.5457 3.63417Z" fill="white"/>
</g>
</g>
</g>
<path d="M44 29.008V6.288H48.512V16.24H48.576L56.352 6.288H62.08L53.696 16.304L62.368 29.008H56.8L50.72 19.888L48.512 22.512V29.008H44Z" fill="white"/>
<path d="M67.3018 29.008L75.7178 6.288H80.0698L88.5177 29.008H83.8138L82.2458 24.464H73.5417L72.0057 29.008H67.3018ZM74.8218 20.624H80.9658L77.9258 11.728H77.8618L74.8218 20.624Z" fill="white"/>
<path d="M102.48 29.296C99.5685 29.296 96.5925 28.144 94.1925 25.68L96.9125 22.352C98.6085 24.272 100.785 25.2 102.576 25.2C104.753 25.2 105.808 24.208 105.808 22.8C105.808 21.136 104.625 20.528 101.873 19.568C98.4165 18.384 94.9925 16.816 94.9925 12.496C94.9925 8.848 98.2245 6.032 102.289 6C105.104 6 107.696 7.024 109.968 8.88L107.345 12.272C105.457 10.736 103.792 10.032 102.384 10.032C100.816 10.032 99.6645 10.864 99.6325 12.304C99.6325 13.712 100.848 14.288 103.472 15.312C107.409 16.848 110.545 17.872 110.545 22.256C110.545 27.248 106.16 29.296 102.48 29.296Z" fill="white"/>
<path d="M122.745 29.008V10.288H116.537V6.288H133.593V10.288H127.289V29.008H122.745Z" fill="white"/>
<path d="M141.077 29.008V6.288H145.654V25.008H155.701V29.008H141.077Z" fill="white"/>
<path d="M163.3 29.008V6.288H177.828V10.288H167.748V15.76H175.812V19.696H167.748V25.008H178.5V29.008H163.3Z" fill="white"/>
<defs>
<filter id="filter0_d_2396_79432" x="3.44567" y="1.66626" width="25.1111" height="28.6667" filterUnits="userSpaceOnUse" color-interpolation-filters="sRGB">
<feFlood flood-opacity="0" result="BackgroundImageFix"/>
<feColorMatrix in="SourceAlpha" type="matrix" values="0 0 0 0 0 0 0 0 0 0 0 0 0 0 0 0 0 0 127 0" result="hardAlpha"/>
<feOffset/>
<feGaussianBlur stdDeviation="0.944444"/>
<feComposite in2="hardAlpha" operator="out"/>
<feColorMatrix type="matrix" values="0 0 0 0 0 0 0 0 0 0.209587 0 0 0 0 0.62876 0 0 0 0.4 0"/>
<feBlend mode="normal" in2="BackgroundImageFix" result="effect1_dropShadow_2396_79432"/>
<feBlend mode="normal" in="SourceGraphic" in2="effect1_dropShadow_2396_79432" result="shape"/>
</filter>
<radialGradient id="paint0_angular_2396_79432" cx="0" cy="0" r="1" gradientUnits="userSpaceOnUse" gradientTransform="translate(18.6667 18.6667) rotate(50.1944) scale(20.8273)">
<stop offset="0.0249837" stop-color="#0193E8"/>
<stop offset="0.507978" stop-color="#17DED8"/>
<stop offset="0.733289" stop-color="#00D7FF"/>
</radialGradient>
<clipPath id="clip0_2396_79432">
<rect width="32" height="32" fill="white"/>
</clipPath>
<clipPath id="clip1_2396_79432">
<rect width="32" height="32" fill="white"/>
</clipPath>
</defs>
</svg>
