<svg width="344" height="97" viewBox="0 0 344 97" fill="none" xmlns="http://www.w3.org/2000/svg">
<rect x="58.5" y="28" width="138.571" height="40" rx="6" fill="#102832"/>
<g filter="url(#filter0_i_6605_113316)">
<ellipse cx="78.4999" cy="47.9989" rx="11.4286" ry="11.4286" fill="#102832"/>
</g>
<g filter="url(#filter1_d_6605_113316)">
<path d="M163.738 48.0004C163.738 37.2177 172.479 28.4766 183.262 28.4766H195.167V67.5242H183.262C172.479 67.5242 163.738 58.7831 163.738 48.0004Z" fill="#DDDDDD"/>
</g>
<path d="M163.738 48C163.738 36.9543 172.692 28 183.738 28H296.309C299.623 28 302.309 30.6863 302.309 34V62C302.309 65.3137 299.623 68 296.309 68H183.738C172.692 68 163.738 59.0457 163.738 48Z" fill="url(#paint0_linear_6605_113316)"/>
<g filter="url(#filter2_i_6605_113316)">
<ellipse cx="183.738" cy="47.9989" rx="11.4286" ry="11.4286" fill="#7B9AAA"/>
</g>
<path fill-rule="evenodd" clip-rule="evenodd" d="M136.458 40.3294C136.146 39.9369 135.59 39.8882 135.215 40.2208L128.904 45.8167L125.849 42.5877C125.503 42.2225 124.943 42.2225 124.597 42.5877C124.252 42.9528 124.252 43.5448 124.597 43.91L128.034 47.5419C128.077 47.5872 128.123 47.6269 128.172 47.661C128.174 47.6642 128.177 47.6674 128.179 47.6706C128.491 48.0631 129.048 48.1118 129.423 47.7792L136.343 41.6424C136.718 41.3098 136.77 40.722 136.458 40.3294Z" fill="white"/>
<path fill-rule="evenodd" clip-rule="evenodd" d="M136.458 40.3294C136.146 39.9369 135.59 39.8882 135.215 40.2208L128.904 45.8167L125.849 42.5877C125.503 42.2225 124.943 42.2225 124.597 42.5877C124.252 42.9528 124.252 43.5448 124.597 43.91L128.034 47.5419C128.077 47.5872 128.123 47.6269 128.172 47.661C128.174 47.6642 128.177 47.6674 128.179 47.6706C128.491 48.0631 129.048 48.1118 129.423 47.7792L136.343 41.6424C136.718 41.3098 136.77 40.722 136.458 40.3294Z" fill="white"/>
<path fill-rule="evenodd" clip-rule="evenodd" d="M136.458 40.3294C136.146 39.9369 135.59 39.8882 135.215 40.2208L128.904 45.8167L125.849 42.5877C125.503 42.2225 124.943 42.2225 124.597 42.5877C124.252 42.9528 124.252 43.5448 124.597 43.91L128.034 47.5419C128.077 47.5872 128.123 47.6269 128.172 47.661C128.174 47.6642 128.177 47.6674 128.179 47.6706C128.491 48.0631 129.048 48.1118 129.423 47.7792L136.343 41.6424C136.718 41.3098 136.77 40.722 136.458 40.3294Z" fill="white"/>
<path d="M121.088 55H120.505L121.814 51.3636H122.448L123.756 55H123.174L122.146 52.0241H122.118L121.088 55ZM121.185 53.576H123.075V54.0376H121.185V53.576ZM124.264 56.0227V52.2727H124.782V52.7148H124.827C124.858 52.658 124.902 52.5923 124.96 52.5178C125.018 52.4432 125.098 52.3781 125.201 52.3224C125.304 52.2656 125.441 52.2372 125.61 52.2372C125.83 52.2372 126.026 52.2929 126.199 52.4041C126.372 52.5154 126.508 52.6758 126.606 52.8853C126.705 53.0948 126.755 53.3469 126.755 53.6417C126.755 53.9364 126.706 54.1892 126.608 54.3999C126.509 54.6094 126.374 54.771 126.203 54.8846C126.031 54.997 125.835 55.0533 125.615 55.0533C125.449 55.0533 125.314 55.0254 125.209 54.9698C125.104 54.9142 125.023 54.8491 124.963 54.7745C124.904 54.6999 124.859 54.6336 124.827 54.5756H124.795V56.0227H124.264ZM124.784 53.6364C124.784 53.8281 124.812 53.9962 124.868 54.1406C124.923 54.285 125.004 54.3981 125.109 54.4798C125.214 54.5603 125.343 54.6005 125.496 54.6005C125.655 54.6005 125.787 54.5585 125.894 54.4744C126 54.3892 126.081 54.2738 126.135 54.1282C126.191 53.9826 126.219 53.8187 126.219 53.6364C126.219 53.4564 126.192 53.2949 126.137 53.1516C126.084 53.0084 126.003 52.8954 125.896 52.8125C125.789 52.7296 125.656 52.6882 125.496 52.6882C125.342 52.6882 125.212 52.7279 125.106 52.8072C125 52.8865 124.92 52.9972 124.866 53.1392C124.811 53.2812 124.784 53.447 124.784 53.6364ZM127.375 56.0227V52.2727H127.893V52.7148H127.938C127.968 52.658 128.013 52.5923 128.071 52.5178C128.129 52.4432 128.209 52.3781 128.312 52.3224C128.415 52.2656 128.551 52.2372 128.721 52.2372C128.941 52.2372 129.137 52.2929 129.31 52.4041C129.483 52.5154 129.619 52.6758 129.717 52.8853C129.816 53.0948 129.866 53.3469 129.866 53.6417C129.866 53.9364 129.817 54.1892 129.719 54.3999C129.62 54.6094 129.485 54.771 129.314 54.8846C129.142 54.997 128.946 55.0533 128.726 55.0533C128.56 55.0533 128.425 55.0254 128.319 54.9698C128.215 54.9142 128.134 54.8491 128.074 54.7745C128.015 54.6999 127.97 54.6336 127.938 54.5756H127.906V56.0227H127.375ZM127.895 53.6364C127.895 53.8281 127.923 53.9962 127.979 54.1406C128.034 54.285 128.115 54.3981 128.22 54.4798C128.325 54.5603 128.454 54.6005 128.607 54.6005C128.766 54.6005 128.898 54.5585 129.005 54.4744C129.111 54.3892 129.192 54.2738 129.246 54.1282C129.302 53.9826 129.33 53.8187 129.33 53.6364C129.33 53.4564 129.303 53.2949 129.248 53.1516C129.195 53.0084 129.114 52.8954 129.007 52.8125C128.9 52.7296 128.767 52.6882 128.607 52.6882C128.453 52.6882 128.323 52.7279 128.216 52.8072C128.111 52.8865 128.031 52.9972 127.977 53.1392C127.922 53.2812 127.895 53.447 127.895 53.6364ZM130.486 55V52.2727H130.999V52.706H131.027C131.077 52.5592 131.165 52.4438 131.29 52.3597C131.417 52.2745 131.56 52.2319 131.72 52.2319C131.753 52.2319 131.792 52.2331 131.837 52.2354C131.883 52.2378 131.919 52.2408 131.945 52.2443V52.7521C131.924 52.7462 131.886 52.7397 131.832 52.7326C131.777 52.7243 131.723 52.7202 131.668 52.7202C131.543 52.7202 131.431 52.7468 131.333 52.8001C131.236 52.8522 131.159 52.925 131.102 53.0185C131.045 53.1108 131.017 53.2161 131.017 53.3345V55H130.486ZM133.481 55.055C133.225 55.055 133.002 54.9964 132.811 54.8793C132.621 54.7621 132.473 54.5981 132.368 54.3874C132.262 54.1767 132.21 53.9305 132.21 53.6488C132.21 53.3659 132.262 53.1185 132.368 52.9066C132.473 52.6947 132.621 52.5302 132.811 52.413C133.002 52.2958 133.225 52.2372 133.481 52.2372C133.737 52.2372 133.96 52.2958 134.15 52.413C134.341 52.5302 134.489 52.6947 134.594 52.9066C134.7 53.1185 134.752 53.3659 134.752 53.6488C134.752 53.9305 134.7 54.1767 134.594 54.3874C134.489 54.5981 134.341 54.7621 134.15 54.8793C133.96 54.9964 133.737 55.055 133.481 55.055ZM133.483 54.6094C133.648 54.6094 133.786 54.5656 133.895 54.478C134.003 54.3904 134.084 54.2738 134.136 54.1282C134.189 53.9826 134.216 53.8222 134.216 53.647C134.216 53.473 134.189 53.3132 134.136 53.1676C134.084 53.0208 134.003 52.9031 133.895 52.8143C133.786 52.7255 133.648 52.6811 133.483 52.6811C133.316 52.6811 133.177 52.7255 133.067 52.8143C132.958 52.9031 132.877 53.0208 132.824 53.1676C132.772 53.3132 132.746 53.473 132.746 53.647C132.746 53.8222 132.772 53.9826 132.824 54.1282C132.877 54.2738 132.958 54.3904 133.067 54.478C133.177 54.5656 133.316 54.6094 133.483 54.6094ZM137.61 52.2727L136.621 55H136.053L135.062 52.2727H135.632L136.323 54.3714H136.351L137.04 52.2727H137.61ZM139.217 55.055C138.948 55.055 138.717 54.9976 138.522 54.8828C138.329 54.7668 138.18 54.604 138.075 54.3945C137.971 54.1838 137.919 53.937 137.919 53.6541C137.919 53.3748 137.971 53.1286 138.075 52.9155C138.18 52.7024 138.327 52.5361 138.515 52.4165C138.705 52.297 138.926 52.2372 139.179 52.2372C139.333 52.2372 139.482 52.2627 139.627 52.3136C139.771 52.3645 139.901 52.4444 140.016 52.5533C140.131 52.6622 140.221 52.8036 140.287 52.9776C140.354 53.1504 140.387 53.3606 140.387 53.608V53.7962H138.219V53.3984H139.867C139.867 53.2588 139.838 53.1351 139.781 53.0273C139.725 52.9184 139.645 52.8326 139.542 52.7699C139.44 52.7071 139.32 52.6758 139.183 52.6758C139.034 52.6758 138.904 52.7125 138.792 52.7859C138.682 52.8581 138.597 52.9528 138.537 53.07C138.477 53.186 138.448 53.312 138.448 53.4482V53.7589C138.448 53.9412 138.48 54.0962 138.544 54.2241C138.609 54.3519 138.699 54.4496 138.815 54.517C138.931 54.5833 139.067 54.6165 139.222 54.6165C139.323 54.6165 139.414 54.6023 139.497 54.5739C139.58 54.5443 139.652 54.5005 139.712 54.4425C139.772 54.3845 139.819 54.3129 139.851 54.2276L140.353 54.3182C140.313 54.4661 140.241 54.5958 140.136 54.707C140.033 54.8171 139.904 54.9029 139.748 54.9645C139.593 55.0249 139.416 55.055 139.217 55.055Z" fill="white"/>
<defs>
<filter id="filter0_i_6605_113316" x="67.0713" y="36.5703" width="22.8572" height="22.8574" filterUnits="userSpaceOnUse" color-interpolation-filters="sRGB">
<feFlood flood-opacity="0" result="BackgroundImageFix"/>
<feBlend mode="normal" in="SourceGraphic" in2="BackgroundImageFix" result="shape"/>
<feColorMatrix in="SourceAlpha" type="matrix" values="0 0 0 0 0 0 0 0 0 0 0 0 0 0 0 0 0 0 127 0" result="hardAlpha"/>
<feOffset/>
<feGaussianBlur stdDeviation="1"/>
<feComposite in2="hardAlpha" operator="arithmetic" k2="-1" k3="1"/>
<feColorMatrix type="matrix" values="0 0 0 0 0 0 0 0 0 0 0 0 0 0 0 0 0 0 1 0"/>
<feBlend mode="normal" in2="shape" result="effect1_innerShadow_6605_113316"/>
</filter>
<filter id="filter1_d_6605_113316" x="161.738" y="27.4766" width="33.4285" height="41.0469" filterUnits="userSpaceOnUse" color-interpolation-filters="sRGB">
<feFlood flood-opacity="0" result="BackgroundImageFix"/>
<feColorMatrix in="SourceAlpha" type="matrix" values="0 0 0 0 0 0 0 0 0 0 0 0 0 0 0 0 0 0 127 0" result="hardAlpha"/>
<feOffset dx="-1"/>
<feGaussianBlur stdDeviation="0.5"/>
<feColorMatrix type="matrix" values="0 0 0 0 0 0 0 0 0 0 0 0 0 0 0 0 0 0 1 0"/>
<feBlend mode="normal" in2="BackgroundImageFix" result="effect1_dropShadow_6605_113316"/>
<feBlend mode="normal" in="SourceGraphic" in2="effect1_dropShadow_6605_113316" result="shape"/>
</filter>
<filter id="filter2_i_6605_113316" x="172.309" y="36.5703" width="22.8572" height="22.8574" filterUnits="userSpaceOnUse" color-interpolation-filters="sRGB">
<feFlood flood-opacity="0" result="BackgroundImageFix"/>
<feBlend mode="normal" in="SourceGraphic" in2="BackgroundImageFix" result="shape"/>
<feColorMatrix in="SourceAlpha" type="matrix" values="0 0 0 0 0 0 0 0 0 0 0 0 0 0 0 0 0 0 127 0" result="hardAlpha"/>
<feOffset/>
<feGaussianBlur stdDeviation="1"/>
<feComposite in2="hardAlpha" operator="arithmetic" k2="-1" k3="1"/>
<feColorMatrix type="matrix" values="0 0 0 0 0 0 0 0 0 0 0 0 0 0 0 0 0 0 0.25 0"/>
<feBlend mode="normal" in2="shape" result="effect1_innerShadow_6605_113316"/>
</filter>
<linearGradient id="paint0_linear_6605_113316" x1="163.738" y1="48" x2="302.5" y2="48" gradientUnits="userSpaceOnUse">
<stop stop-color="#7B9AAA"/>
<stop offset="0.485" stop-color="#7B9AAA"/>
<stop offset="1" stop-color="#7B9AAA" stop-opacity="0"/>
</linearGradient>
</defs>
</svg>
