<svg width="340" height="96" viewBox="0 0 340 96" fill="none" xmlns="http://www.w3.org/2000/svg">
<rect x="56" y="28" width="138.571" height="40" rx="6" fill="#102832"/>
<g filter="url(#filter0_i_6084_140511)">
<ellipse cx="75.9999" cy="47.9989" rx="11.4286" ry="11.4286" fill="#102832"/>
</g>
<g filter="url(#filter1_d_6084_140511)">
<path d="M161.238 48.0004C161.238 37.2177 169.979 28.4766 180.762 28.4766H192.667V67.5242H180.762C169.979 67.5242 161.238 58.7831 161.238 48.0004Z" fill="#DDDDDD"/>
</g>
<path d="M161.238 48C161.238 36.9543 170.192 28 181.238 28H293.81C297.123 28 299.81 30.6863 299.81 34V62C299.81 65.3137 297.123 68 293.81 68H181.238C170.192 68 161.238 59.0457 161.238 48Z" fill="url(#paint0_linear_6084_140511)"/>
<g filter="url(#filter2_i_6084_140511)">
<ellipse cx="181.238" cy="47.9989" rx="11.4286" ry="11.4286" fill="#7B9AAA"/>
</g>
<path fill-rule="evenodd" clip-rule="evenodd" d="M133.958 39.8294C133.646 39.4369 133.09 39.3882 132.715 39.7208L126.404 45.3167L123.349 42.0877C123.003 41.7225 122.443 41.7225 122.097 42.0877C121.752 42.4528 121.752 43.0448 122.097 43.41L125.534 47.0419C125.577 47.0872 125.623 47.1269 125.672 47.161C125.674 47.1642 125.677 47.1674 125.679 47.1706C125.991 47.5631 126.548 47.6118 126.923 47.2792L133.843 41.1424C134.218 40.8098 134.27 40.222 133.958 39.8294Z" fill="white"/>
<path fill-rule="evenodd" clip-rule="evenodd" d="M133.958 39.8294C133.646 39.4369 133.09 39.3882 132.715 39.7208L126.404 45.3167L123.349 42.0877C123.003 41.7225 122.443 41.7225 122.097 42.0877C121.752 42.4528 121.752 43.0448 122.097 43.41L125.534 47.0419C125.577 47.0872 125.623 47.1269 125.672 47.161C125.674 47.1642 125.677 47.1674 125.679 47.1706C125.991 47.5631 126.548 47.6118 126.923 47.2792L133.843 41.1424C134.218 40.8098 134.27 40.222 133.958 39.8294Z" fill="white"/>
<path fill-rule="evenodd" clip-rule="evenodd" d="M133.958 39.8294C133.646 39.4369 133.09 39.3882 132.715 39.7208L126.404 45.3167L123.349 42.0877C123.003 41.7225 122.443 41.7225 122.097 42.0877C121.752 42.4528 121.752 43.0448 122.097 43.41L125.534 47.0419C125.577 47.0872 125.623 47.1269 125.672 47.161C125.674 47.1642 125.677 47.1674 125.679 47.1706C125.991 47.5631 126.548 47.6118 126.923 47.2792L133.843 41.1424C134.218 40.8098 134.27 40.222 133.958 39.8294Z" fill="white"/>
<path d="M116.165 55.5H115.466L117.037 51.1364H117.797L119.368 55.5H118.669L117.435 51.929H117.401L116.165 55.5ZM116.282 53.7912H118.55V54.3452H116.282V53.7912ZM120.157 56.7273V52.2273H120.779V52.7578H120.832C120.869 52.6896 120.922 52.6108 120.992 52.5213C121.062 52.4318 121.158 52.3537 121.282 52.2869C121.405 52.2188 121.569 52.1847 121.772 52.1847C122.036 52.1847 122.272 52.2514 122.479 52.3849C122.687 52.5185 122.849 52.7109 122.967 52.9624C123.086 53.2138 123.146 53.5163 123.146 53.87C123.146 54.2237 123.087 54.527 122.969 54.7798C122.851 55.0312 122.689 55.2251 122.483 55.3615C122.277 55.4964 122.042 55.5639 121.778 55.5639C121.579 55.5639 121.417 55.5305 121.29 55.4638C121.165 55.397 121.067 55.3189 120.996 55.2294C120.925 55.1399 120.87 55.0604 120.832 54.9908H120.794V56.7273H120.157ZM120.781 53.8636C120.781 54.0937 120.814 54.2955 120.881 54.4688C120.948 54.642 121.044 54.7777 121.171 54.8757C121.297 54.9723 121.452 55.0206 121.635 55.0206C121.826 55.0206 121.985 54.9702 122.113 54.8693C122.241 54.767 122.337 54.6286 122.402 54.4538C122.469 54.2791 122.503 54.0824 122.503 53.8636C122.503 53.6477 122.47 53.4538 122.405 53.282C122.341 53.1101 122.244 52.9744 122.115 52.875C121.987 52.7756 121.827 52.7259 121.635 52.7259C121.451 52.7259 121.294 52.7734 121.167 52.8686C121.04 52.9638 120.944 53.0966 120.879 53.267C120.814 53.4375 120.781 53.6364 120.781 53.8636ZM124.07 56.7273V52.2273H124.692V52.7578H124.745C124.782 52.6896 124.835 52.6108 124.905 52.5213C124.975 52.4318 125.071 52.3537 125.195 52.2869C125.318 52.2188 125.482 52.1847 125.685 52.1847C125.949 52.1847 126.185 52.2514 126.392 52.3849C126.6 52.5185 126.762 52.7109 126.88 52.9624C127 53.2138 127.059 53.5163 127.059 53.87C127.059 54.2237 127 54.527 126.882 54.7798C126.764 55.0312 126.603 55.2251 126.397 55.3615C126.191 55.4964 125.955 55.5639 125.691 55.5639C125.492 55.5639 125.33 55.5305 125.203 55.4638C125.078 55.397 124.98 55.3189 124.909 55.2294C124.838 55.1399 124.784 55.0604 124.745 54.9908H124.707V56.7273H124.07ZM124.694 53.8636C124.694 54.0937 124.728 54.2955 124.794 54.4688C124.861 54.642 124.958 54.7777 125.084 54.8757C125.21 54.9723 125.365 55.0206 125.549 55.0206C125.739 55.0206 125.898 54.9702 126.026 54.8693C126.154 54.767 126.25 54.6286 126.316 54.4538C126.382 54.2791 126.416 54.0824 126.416 53.8636C126.416 53.6477 126.383 53.4538 126.318 53.282C126.254 53.1101 126.157 52.9744 126.028 52.875C125.9 52.7756 125.74 52.7259 125.549 52.7259C125.364 52.7259 125.208 52.7734 125.08 52.8686C124.953 52.9638 124.857 53.0966 124.792 53.267C124.727 53.4375 124.694 53.6364 124.694 53.8636ZM127.983 55.5V52.2273H128.599V52.7472H128.633C128.692 52.571 128.798 52.4325 128.948 52.3317C129.1 52.2294 129.272 52.1783 129.464 52.1783C129.504 52.1783 129.55 52.1797 129.604 52.1825C129.66 52.1854 129.703 52.1889 129.734 52.1932V52.8026C129.709 52.7955 129.663 52.7876 129.598 52.7791C129.533 52.7692 129.467 52.7642 129.402 52.7642C129.251 52.7642 129.117 52.7962 128.999 52.8601C128.883 52.9226 128.79 53.0099 128.722 53.1222C128.654 53.233 128.62 53.3594 128.62 53.5014V55.5H127.983ZM131.757 55.5661C131.45 55.5661 131.182 55.4957 130.954 55.3551C130.725 55.2145 130.548 55.0178 130.421 54.7649C130.295 54.5121 130.231 54.2166 130.231 53.8786C130.231 53.5391 130.295 53.2422 130.421 52.9879C130.548 52.7337 130.725 52.5362 130.954 52.3956C131.182 52.255 131.45 52.1847 131.757 52.1847C132.064 52.1847 132.332 52.255 132.56 52.3956C132.789 52.5362 132.967 52.7337 133.093 52.9879C133.219 53.2422 133.283 53.5391 133.283 53.8786C133.283 54.2166 133.219 54.5121 133.093 54.7649C132.967 55.0178 132.789 55.2145 132.56 55.3551C132.332 55.4957 132.064 55.5661 131.757 55.5661ZM131.759 55.0312C131.958 55.0312 132.123 54.9787 132.254 54.8736C132.384 54.7685 132.481 54.6286 132.543 54.4538C132.607 54.2791 132.639 54.0866 132.639 53.8764C132.639 53.6676 132.607 53.4759 132.543 53.3011C132.481 53.125 132.384 52.9837 132.254 52.8771C132.123 52.7706 131.958 52.7173 131.759 52.7173C131.559 52.7173 131.393 52.7706 131.261 52.8771C131.13 52.9837 131.033 53.125 130.969 53.3011C130.906 53.4759 130.875 53.6676 130.875 53.8764C130.875 54.0866 130.906 54.2791 130.969 54.4538C131.033 54.6286 131.13 54.7685 131.261 54.8736C131.393 54.9787 131.559 55.0312 131.759 55.0312ZM136.892 52.2273L135.705 55.5H135.024L133.835 52.2273H134.519L135.347 54.7457H135.381L136.208 52.2273H136.892ZM139 55.5661C138.678 55.5661 138.4 55.4972 138.167 55.3594C137.935 55.2202 137.756 55.0249 137.63 54.7734C137.505 54.5206 137.443 54.2244 137.443 53.8849C137.443 53.5497 137.505 53.2543 137.63 52.9986C137.756 52.7429 137.933 52.5433 138.158 52.3999C138.386 52.2564 138.651 52.1847 138.955 52.1847C139.14 52.1847 139.319 52.2152 139.492 52.2763C139.666 52.3374 139.821 52.4332 139.959 52.5639C140.097 52.6946 140.205 52.8643 140.285 53.0732C140.364 53.2805 140.404 53.5327 140.404 53.8295V54.0554H137.803V53.5781H139.78C139.78 53.4105 139.746 53.2621 139.678 53.1328C139.609 53.0021 139.514 52.8991 139.39 52.8239C139.268 52.7486 139.124 52.7109 138.96 52.7109C138.781 52.7109 138.624 52.755 138.491 52.843C138.359 52.9297 138.256 53.0433 138.184 53.1839C138.113 53.3232 138.077 53.4744 138.077 53.6378V54.0107C138.077 54.2294 138.116 54.4155 138.193 54.5689C138.271 54.7223 138.379 54.8395 138.518 54.9205C138.658 55 138.82 55.0398 139.006 55.0398C139.127 55.0398 139.237 55.0227 139.337 54.9886C139.436 54.9531 139.522 54.9006 139.594 54.831C139.667 54.7614 139.722 54.6754 139.761 54.5732L140.364 54.6818C140.315 54.8594 140.229 55.0149 140.104 55.1484C139.98 55.2805 139.825 55.3835 139.637 55.4574C139.451 55.5298 139.239 55.5661 139 55.5661Z" fill="white"/>
<defs>
<filter id="filter0_i_6084_140511" x="64.5713" y="36.5703" width="22.8571" height="22.8555" filterUnits="userSpaceOnUse" color-interpolation-filters="sRGB">
<feFlood flood-opacity="0" result="BackgroundImageFix"/>
<feBlend mode="normal" in="SourceGraphic" in2="BackgroundImageFix" result="shape"/>
<feColorMatrix in="SourceAlpha" type="matrix" values="0 0 0 0 0 0 0 0 0 0 0 0 0 0 0 0 0 0 127 0" result="hardAlpha"/>
<feOffset/>
<feGaussianBlur stdDeviation="1"/>
<feComposite in2="hardAlpha" operator="arithmetic" k2="-1" k3="1"/>
<feColorMatrix type="matrix" values="0 0 0 0 0 0 0 0 0 0 0 0 0 0 0 0 0 0 1 0"/>
<feBlend mode="normal" in2="shape" result="effect1_innerShadow_6084_140511"/>
</filter>
<filter id="filter1_d_6084_140511" x="159.238" y="27.4766" width="33.4286" height="41.0469" filterUnits="userSpaceOnUse" color-interpolation-filters="sRGB">
<feFlood flood-opacity="0" result="BackgroundImageFix"/>
<feColorMatrix in="SourceAlpha" type="matrix" values="0 0 0 0 0 0 0 0 0 0 0 0 0 0 0 0 0 0 127 0" result="hardAlpha"/>
<feOffset dx="-1"/>
<feGaussianBlur stdDeviation="0.5"/>
<feColorMatrix type="matrix" values="0 0 0 0 0 0 0 0 0 0 0 0 0 0 0 0 0 0 1 0"/>
<feBlend mode="normal" in2="BackgroundImageFix" result="effect1_dropShadow_6084_140511"/>
<feBlend mode="normal" in="SourceGraphic" in2="effect1_dropShadow_6084_140511" result="shape"/>
</filter>
<filter id="filter2_i_6084_140511" x="169.809" y="36.5703" width="22.8571" height="22.8555" filterUnits="userSpaceOnUse" color-interpolation-filters="sRGB">
<feFlood flood-opacity="0" result="BackgroundImageFix"/>
<feBlend mode="normal" in="SourceGraphic" in2="BackgroundImageFix" result="shape"/>
<feColorMatrix in="SourceAlpha" type="matrix" values="0 0 0 0 0 0 0 0 0 0 0 0 0 0 0 0 0 0 127 0" result="hardAlpha"/>
<feOffset/>
<feGaussianBlur stdDeviation="1"/>
<feComposite in2="hardAlpha" operator="arithmetic" k2="-1" k3="1"/>
<feColorMatrix type="matrix" values="0 0 0 0 0 0 0 0 0 0 0 0 0 0 0 0 0 0 0.25 0"/>
<feBlend mode="normal" in2="shape" result="effect1_innerShadow_6084_140511"/>
</filter>
<linearGradient id="paint0_linear_6084_140511" x1="161.238" y1="48" x2="300" y2="48" gradientUnits="userSpaceOnUse">
<stop stop-color="#7B9AAA"/>
<stop offset="0.485" stop-color="#7B9AAA"/>
<stop offset="1" stop-color="#7B9AAA" stop-opacity="0"/>
</linearGradient>
</defs>
</svg>
