<svg width="16" height="16" viewBox="0 0 16 16" fill="none" xmlns="http://www.w3.org/2000/svg">
<path d="M14.1664 13.6849V14.1663H13.6849V13.6849H14.1664ZM11.2035 13.6849V14.1663H10.722V13.6849H11.2035ZM6.75912 9.24054V14.1663H1.83334V9.24054H6.75912ZM2.31479 13.6849H6.27768V9.72198H2.31479V13.6849ZM12.6849 12.2034V12.6849H12.2035V12.2034H12.6849ZM9.72202 12.2034V12.6849H9.24057V12.2034H9.72202ZM14.1664 10.722V11.2034H13.6849V10.722H14.1664ZM11.2035 10.722V11.2034H10.722V10.722H11.2035ZM12.6849 9.24054V9.72198H12.2035V9.24054H12.6849ZM9.72202 9.24054V9.72198H9.24057V9.24054H9.72202ZM14.1664 1.83331V6.75909H9.24057V1.83331H14.1664ZM6.75912 1.83331V6.75909H1.83334V1.83331H6.75912ZM2.31479 6.27765H6.27768V2.31476H2.31479V6.27765ZM9.72202 6.27765H13.6849V2.31476H9.72202V6.27765Z" stroke="white"/>
</svg>
