<svg xmlns="http://www.w3.org/2000/svg" width="18" height="16" viewBox="0 0 18 16" fill="none">
    <path fill-rule="evenodd" clip-rule="evenodd"
          d="M15.1253 1H13.3753V2.07672H11.9749V2.86676H10.7502V3.80014H9.00017V4.37433H7.81885V5.30771H6.15635V6.38443H5.49991V6.25026H3.3999V7.46114H2V8.53809H3.3999V8.87532H5.32491V9.61527H6.98741V8.53855H7.81885V7.46161H9.4813V6.60029H10.7502V5.66691H11.9749V6.38443V6.60029H11.6252V7.53367H10.7502V8.53769H9.48126V9.40043L9.00017 9.40043V11.2672H9.87519V12.2006H10.7502V13.134H11.6252V14.0673H11.9749V15H13.6374V13.9231H14.4687V9.40043H15.1253V6.25014H16V1.87505H15.1253V1Z"
          fill="white"/>
</svg>