<svg width="19" height="18" viewBox="0 0 19 18" fill="none" xmlns="http://www.w3.org/2000/svg">
    <g clip-path="url(#clip0_1078_1920)">
        <path fill-rule="evenodd" clip-rule="evenodd"
              d="M0.5 0H34.7003V1.38463H0.5V0ZM0.5 2.76926H34.7003V4.15389H0.5V2.76926ZM0.5 5.53852H34.7003V6.92314H0.5V5.53852ZM0.5 8.30777H34.7003V9.6924H0.5V8.30777ZM0.5 11.077H34.7003V12.4617H0.5V11.077ZM0.5 13.8463H34.7003V15.2309H0.5V13.8463ZM0.5 16.6155H34.7003V18.0002H0.5V16.6155Z"
              fill="#BD3D44"/>
        <path fill-rule="evenodd" clip-rule="evenodd"
              d="M0.5 1.38464H34.7003V2.76927H0.5V1.38464ZM0.5 4.1539H34.7003V5.53853H0.5V4.1539ZM0.5 6.92316H34.7003V8.30779H0.5V6.92316ZM0.5 9.69242H34.7003V11.077H0.5V9.69242ZM0.5 12.4617H34.7003V13.8463H0.5V12.4617ZM0.5 15.2309H34.7003V16.6156H0.5V15.2309Z"
              fill="white"/>
        <path fill-rule="evenodd" clip-rule="evenodd" d="M0.5 0H14.1801V9.6924H0.5V0Z" fill="#192F5D"/>
        <path fill-rule="evenodd" clip-rule="evenodd"
              d="M1.63536 0.415405L1.77382 0.803101H2.16152L1.84305 1.03849L1.96767 1.41234L1.63536 1.17695L1.33074 1.41234L1.45536 1.03849L1.12305 0.803101H1.53844L1.63536 0.415405ZM3.92 0.415405L4.04461 0.803101H4.44616L4.11385 1.03849L4.25231 1.41234L3.92 1.17695L3.58769 1.41234L3.72615 1.03849L3.39384 0.803101H3.79538L3.92 0.415405ZM6.20464 0.415405L6.32925 0.803101H6.73079L6.39848 1.03849L6.53695 1.41234L6.20464 1.17695L5.87232 1.41234L6.01079 1.03849L5.67848 0.803101H6.08002L6.20464 0.415405ZM8.47543 0.415405L8.61389 0.803101H9.00159L8.68312 1.03849L8.80774 1.41234L8.47543 1.17695L8.15696 1.41234L8.28158 1.03849L7.94927 0.803101H8.36466L8.47543 0.415405ZM10.7601 0.415405L10.8847 0.803101H11.2862L10.9539 1.03849L11.0924 1.41234L10.7462 1.17695L10.4278 1.41234L10.5524 1.03849L10.2201 0.803101H10.6216L10.7601 0.415405ZM13.0447 0.415405L13.1693 0.803101H13.5709L13.2386 1.03849L13.377 1.41234L13.0447 1.17695L12.7124 1.41234L12.8509 1.03849L12.5185 0.803101H12.9201L13.0447 0.415405ZM2.7846 1.38465L2.90922 1.77234H3.31076L2.97845 2.00773L3.11691 2.38158L2.7846 2.14619L2.45229 2.38158L2.59075 2.00773L2.25844 1.77234H2.65999L2.7846 1.38465ZM5.05539 1.38465L5.19386 1.77234H5.58155L5.26309 2.00773L5.3877 2.38158L5.05539 2.14619L4.73693 2.38158L4.86155 2.00773L4.52923 1.77234H4.94462L5.05539 1.38465ZM7.34003 1.38465L7.46465 1.77234H7.86619L7.53388 2.00773L7.67234 2.38158L7.34003 2.14619L7.00772 2.38158L7.14618 2.00773L6.81387 1.77234H7.21541L7.34003 1.38465ZM9.62467 1.38465L9.74929 1.77234H10.1508L9.81852 2.00773L9.95698 2.38158L9.62467 2.14619L9.29236 2.38158L9.43082 2.00773L9.09851 1.77234H9.50005L9.62467 1.38465ZM11.8955 1.38465L12.0339 1.77234H12.4078L12.0893 2.00773L12.2139 2.38158L11.8816 2.14619L11.5631 2.38158L11.6878 2.00773L11.3555 1.77234H11.7708L11.8955 1.38465ZM1.64921 2.35389L1.75998 2.74158H2.17536L1.84305 2.97697L1.96767 3.35082L1.63536 3.11543L1.33074 3.35082L1.45536 2.97697L1.12305 2.74158H1.53844L1.64921 2.35389ZM3.92 2.35389L4.04461 2.74158H4.44616L4.12769 2.97697L4.25231 3.35082L3.92 3.11543L3.60153 3.35082L3.72615 2.97697L3.39384 2.74158H3.79538L3.92 2.35389ZM6.20464 2.35389L6.32925 2.74158H6.73079L6.39848 2.97697L6.53695 3.35082L6.20464 3.11543L5.87232 3.35082L6.01079 2.97697L5.67848 2.74158H6.08002L6.20464 2.35389ZM8.47543 2.35389L8.61389 2.74158H9.00159L8.68312 2.97697L8.80774 3.35082L8.47543 3.11543L8.15696 3.35082L8.28158 2.97697L7.94927 2.74158H8.36466L8.47543 2.35389ZM10.7601 2.35389L10.8847 2.74158H11.2862L10.9678 2.97697L11.0924 3.35082L10.7601 3.11543L10.4416 3.35082L10.5662 2.97697L10.2339 2.74158H10.6354L10.7601 2.35389ZM13.0447 2.35389L13.1693 2.74158H13.5709L13.2386 2.97697L13.377 3.35082L13.0447 3.11543L12.7124 3.35082L12.8509 2.97697L12.5185 2.74158H12.9201L13.0447 2.35389ZM2.7846 3.32313L2.90922 3.71082H3.31076L2.97845 3.94621L3.11691 4.32006L2.7846 4.08467L2.45229 4.32006L2.59075 3.94621L2.25844 3.71082H2.65999L2.7846 3.32313ZM5.05539 3.32313L5.19386 3.71082H5.58155L5.26309 3.94621L5.3877 4.32006L5.05539 4.08467L4.73693 4.32006L4.86155 3.94621L4.52923 3.71082H4.94462L5.05539 3.32313ZM7.34003 3.32313L7.46465 3.71082H7.86619L7.54773 3.94621L7.67234 4.32006L7.34003 4.08467L7.02157 4.32006L7.14618 3.94621L6.81387 3.71082H7.21541L7.34003 3.32313ZM9.62467 3.32313L9.74929 3.71082H10.1508L9.81852 3.94621L9.95698 4.32006L9.62467 4.08467L9.29236 4.32006L9.43082 3.94621L9.09851 3.71082H9.50005L9.62467 3.32313ZM11.8955 3.32313L12.0339 3.71082H12.4078L12.0893 3.94621L12.2139 4.32006L11.8816 4.08467L11.5631 4.32006L11.6878 3.94621L11.3555 3.71082H11.7708L11.8955 3.32313ZM1.64921 4.29237L1.75998 4.68006H2.17536L1.84305 4.91545L1.96767 5.2893L1.63536 5.05391L1.33074 5.2893L1.45536 4.91545L1.12305 4.68006H1.53844L1.64921 4.29237ZM3.92 4.29237L4.04461 4.68006H4.44616L4.12769 4.91545L4.25231 5.2893L3.92 5.05391L3.60153 5.2893L3.72615 4.91545L3.39384 4.68006H3.79538L3.92 4.29237ZM6.20464 4.29237L6.32925 4.68006H6.73079L6.39848 4.91545L6.53695 5.2893L6.20464 5.05391L5.87232 5.2893L6.01079 4.91545L5.67848 4.68006H6.08002L6.20464 4.29237ZM8.47543 4.29237L8.61389 4.68006H9.00159L8.68312 4.91545L8.80774 5.2893L8.47543 5.05391L8.15696 5.2893L8.28158 4.91545L7.94927 4.68006H8.36466L8.47543 4.29237ZM10.7601 4.29237L10.8847 4.68006H11.2862L10.9678 4.91545L11.0924 5.2893L10.7601 5.05391L10.4416 5.2893L10.5662 4.91545L10.2339 4.68006H10.6354L10.7601 4.29237ZM13.0447 4.29237L13.1693 4.68006H13.5709L13.2386 4.91545L13.377 5.2893L13.0447 5.05391L12.7124 5.2893L12.8509 4.91545L12.5185 4.68006H12.9201L13.0447 4.29237ZM2.7846 5.26161L2.90922 5.6493H3.31076L2.97845 5.88469L3.11691 6.25854L2.7846 6.02315L2.45229 6.25854L2.59075 5.88469L2.25844 5.6493H2.65999L2.7846 5.26161ZM5.05539 5.26161L5.19386 5.6493H5.58155L5.26309 5.88469L5.3877 6.25854L5.05539 6.02315L4.73693 6.25854L4.86155 5.88469L4.52923 5.6493H4.94462L5.05539 5.26161ZM7.34003 5.26161L7.46465 5.6493H7.86619L7.54773 5.88469L7.67234 6.25854L7.34003 6.02315L7.02157 6.25854L7.14618 5.88469L6.81387 5.6493H7.21541L7.34003 5.26161ZM9.62467 5.26161L9.74929 5.6493H10.1508L9.81852 5.88469L9.95698 6.25854L9.62467 6.02315L9.29236 6.25854L9.43082 5.88469L9.09851 5.6493H9.50005L9.62467 5.26161ZM11.8955 5.26161L12.0339 5.6493H12.4078L12.0893 5.88469L12.2139 6.25854L11.8816 6.02315L11.5631 6.25854L11.6878 5.88469L11.3555 5.6493H11.7708L11.8955 5.26161ZM1.64921 6.23085L1.75998 6.61854H2.17536L1.84305 6.85393L1.96767 7.22778L1.63536 6.99239L1.33074 7.22778L1.45536 6.85393L1.12305 6.61854H1.53844L1.64921 6.23085ZM3.92 6.23085L4.04461 6.61854H4.44616L4.12769 6.85393L4.25231 7.22778L3.92 6.99239L3.60153 7.22778L3.72615 6.85393L3.39384 6.61854H3.79538L3.92 6.23085ZM6.20464 6.23085L6.32925 6.61854H6.73079L6.39848 6.85393L6.53695 7.22778L6.20464 6.99239L5.87232 7.22778L6.01079 6.85393L5.67848 6.61854H6.08002L6.20464 6.23085ZM8.47543 6.23085L8.61389 6.61854H9.00159L8.68312 6.85393L8.80774 7.22778L8.47543 6.99239L8.15696 7.22778L8.28158 6.85393L7.94927 6.61854H8.36466L8.47543 6.23085ZM10.7601 6.23085L10.8847 6.61854H11.2862L10.9678 6.85393L11.0924 7.22778L10.7601 6.99239L10.4416 7.22778L10.5662 6.85393L10.2339 6.61854H10.6354L10.7601 6.23085ZM13.0447 6.23085L13.1693 6.61854H13.5709L13.2386 6.85393L13.377 7.22778L13.0447 6.99239L12.7124 7.22778L12.8509 6.85393L12.5185 6.61854H12.9201L13.0447 6.23085ZM2.7846 7.20009L2.90922 7.58778H3.31076L2.97845 7.82317L3.11691 8.19702L2.7846 7.96163L2.45229 8.19702L2.59075 7.82317L2.25844 7.58778H2.65999L2.7846 7.20009ZM5.05539 7.20009L5.19386 7.58778H5.58155L5.26309 7.82317L5.3877 8.19702L5.05539 7.96163L4.73693 8.19702L4.86155 7.82317L4.52923 7.58778H4.94462L5.05539 7.20009ZM7.34003 7.20009L7.46465 7.58778H7.86619L7.54773 7.82317L7.67234 8.19702L7.34003 7.96163L7.02157 8.19702L7.14618 7.82317L6.81387 7.58778H7.21541L7.34003 7.20009ZM9.62467 7.20009L9.74929 7.58778H10.1508L9.81852 7.82317L9.95698 8.19702L9.62467 7.96163L9.29236 8.19702L9.43082 7.82317L9.09851 7.58778H9.50005L9.62467 7.20009ZM11.8955 7.20009L12.0339 7.58778H12.4078L12.0893 7.82317L12.2139 8.19702L11.8816 7.96163L11.5631 8.19702L11.6878 7.82317L11.3555 7.58778H11.7708L11.8955 7.20009ZM1.64921 8.16933L1.75998 8.55702H2.17536L1.84305 8.79241L1.96767 9.16626L1.63536 8.93087L1.33074 9.16626L1.45536 8.79241L1.12305 8.55702H1.53844L1.64921 8.16933ZM3.92 8.16933L4.04461 8.55702H4.44616L4.12769 8.79241L4.25231 9.16626L3.92 8.93087L3.60153 9.16626L3.72615 8.79241L3.39384 8.55702H3.79538L3.92 8.16933ZM6.20464 8.16933L6.32925 8.55702H6.73079L6.39848 8.79241L6.53695 9.16626L6.20464 8.93087L5.87232 9.16626L6.01079 8.79241L5.67848 8.55702H6.08002L6.20464 8.16933ZM8.47543 8.16933L8.61389 8.55702H9.00159L8.68312 8.79241L8.80774 9.16626L8.47543 8.93087L8.15696 9.16626L8.28158 8.79241L7.94927 8.55702H8.36466L8.47543 8.16933ZM10.7601 8.16933L10.8847 8.55702H11.2862L10.9678 8.79241L11.0924 9.16626L10.7601 8.93087L10.4416 9.16626L10.5662 8.79241L10.2339 8.55702H10.6354L10.7601 8.16933ZM13.0447 8.16933L13.1693 8.55702H13.5709L13.2386 8.79241L13.377 9.16626L13.0447 8.93087L12.7124 9.16626L12.8509 8.79241L12.5185 8.55702H12.9201L13.0447 8.16933Z"
              fill="white"/>
    </g>
    <defs>
        <clipPath id="clip0_1078_1920">
            <rect x="0.5" width="18" height="18" rx="9" fill="white"/>
        </clipPath>
    </defs>
</svg>
