<svg xmlns="http://www.w3.org/2000/svg" width="16" height="16" viewBox="0 0 16 16" fill="none">
    <path d="M10.3333 6.66634V5.99967H11V5.33301H11.6667V4.66634H12.3333V3.99967H13V3.33301H13.6667V2.66634H14.3333V1.99967H15V1.33301H13V1.99967H12.3333V2.66634H11.6667V3.33301H11V3.99967H10.3333V4.66634H9.66667V5.33301H8.33333V4.66634H7.66667V3.99967H7V2.66634H6.33333V1.99967H5.66667V1.33301H1V1.99967H1.66667V2.66634H2.33333V3.33301H3V4.66634H3.66667V5.33301H4.33333V6.66634H5V7.33301H5.66667V8.66634H6.33333V9.33301H5.66667V9.99967H5V10.6663H4.33333V11.333H3.66667V11.9997H3V12.6663H2.33333V13.333H1.66667V13.9997H1V14.6663H3V13.9997H3.66667V13.333H4.33333V12.6663H5V11.9997H5.66667V11.333H6.33333V10.6663H7.66667V11.333H8.33333V11.9997H9V13.333H9.66667V13.9997H10.3333V14.6663H15V13.9997H14.3333V13.333H13.6667V12.6663H13V11.333H12.3333V10.6663H11.6667V9.33301H11V8.66634H10.3333V7.33301H9.66667V6.66634H10.3333ZM10.3333 9.33301V9.99967H11V11.333H11.6667V11.9997H12.3333V13.333H10.3333V11.9997H9.66667V11.333H9V10.6663H8.33333V9.33301H7.66667V8.66634H7V7.99967H6.33333V6.66634H5.66667V5.99967H5V4.66634H4.33333V3.99967H3.66667V2.66634H5.66667V3.33301H6.33333V4.66634H7V5.33301H7.66667V6.66634H8.33333V7.33301H9V7.99967H9.66667V9.33301H10.3333Z"
          fill="white"/>
</svg>