<svg width="44" height="44" viewBox="0 0 44 44" fill="none" xmlns="http://www.w3.org/2000/svg">
<path d="M0 22C0 9.84974 9.84974 0 22 0V0C34.1503 0 44 9.84974 44 22V22C44 34.1503 34.1503 44 22 44V44C9.84974 44 0 34.1503 0 22V22Z" fill="black"/>
<g clip-path="url(#clip0_9724_69758)">
<path fill-rule="evenodd" clip-rule="evenodd" d="M20.7719 15.1765L10.7368 26.4706L8 29.7647L10.7368 27.2235L23.0526 14.2353L26.7018 10L20.7719 15.1765ZM13.8386 34V26.6117L26.8386 12.3529H34L24.3409 22.7238L32.9053 32.7294H25.3334L20.4387 26.9135L13.8386 34ZM18.993 12.3529H18.0807L13.9298 16.5882V17.4824L18.993 12.3529ZM17.5789 12.3529H16.6666L13.9298 15.1294V16.0235L17.5789 12.3529ZM16.3474 12.3529H15.4351L13.9298 13.9059V14.8L16.3474 12.3529ZM13.9298 13.3882L14.9789 12.3529H13.9298V13.3882ZM19.2666 12.4471L13.9298 18V18.8942L19.2666 13.2941V12.4471ZM19.2666 13.9059L13.9298 19.4588V20.3529L19.2666 14.8V13.9059ZM19.2211 15.3647L13.9298 20.9176V22L19.2211 16.4V15.3647Z" fill="url(#paint0_linear_9724_69758)"/>
</g>
<defs>
<linearGradient id="paint0_linear_9724_69758" x1="10.4536" y1="13.2285" x2="34.5327" y2="33.3629" gradientUnits="userSpaceOnUse">
<stop stop-color="#6AF4DE"/>
<stop offset="1" stop-color="#15B5C1"/>
</linearGradient>
<clipPath id="clip0_9724_69758">
<rect width="26" height="24" fill="white" transform="translate(8 10)"/>
</clipPath>
</defs>
</svg>
