<svg width="65" height="64" viewBox="0 0 65 64" fill="none" xmlns="http://www.w3.org/2000/svg">
<g clip-path="url(#clip0_9367_44154)">
<g clip-path="url(#clip1_9367_44154)">
<path d="M32.9142 55.44C45.8437 55.44 56.3252 44.943 56.3252 31.9943C56.3252 19.0456 45.8437 8.54858 32.9142 8.54858C19.9847 8.54858 9.5033 19.0456 9.5033 31.9943C9.5033 44.943 19.9847 55.44 32.9142 55.44Z" fill="white"/>
<path d="M61.9568 19.3714C60.3591 15.5086 57.8372 11.9257 54.9272 9.01714C52.0287 6.10286 48.3028 3.92571 44.4399 2.32571C40.7255 0.777143 36.5773 0 32.298 0C28.0186 0 23.6195 0.154285 19.905 1.70286C16.0478 3.30286 12.8184 6.34286 9.91411 9.25714C7.00414 12.1714 3.62631 15.2629 2.02868 19.12C0.482407 22.8514 0.984519 27.3943 0.984519 31.6857C0.984519 35.9771 1.29834 40.1714 2.84461 43.9029C4.44224 47.7657 7.70596 50.4971 10.6045 53.4114C13.5145 56.3257 16.1448 59.8 20.002 61.4C23.7279 62.9486 28.0129 64 32.2923 64C36.5716 64 40.7768 62.7314 44.5027 61.1771C48.3541 59.5771 51.8404 57.0743 54.7503 54.1657C57.6603 51.2514 59.994 47.6971 61.603 43.8343C63.1436 40.1143 64.9067 35.9714 64.9067 31.6857C64.9067 27.4 63.4916 23.1143 61.9454 19.3829L61.9568 19.3714ZM41.2675 49.9371L34.489 48.9371L36.4233 35.7943L22.2329 46.7429L18.0563 41.28L30.5064 31.68L18.0563 22.0743L22.2329 16.6114L36.4233 27.56L34.489 14.4229L41.2675 13.4114L43.9664 31.6857L41.2675 49.9486V49.9371Z" fill="#6FC7BA"/>
</g>
</g>
<defs>
<clipPath id="clip0_9367_44154">
<path d="M0.931946 32C0.931946 14.3269 15.2588 0 32.9319 0V0C50.6051 0 64.9319 14.3269 64.9319 32V32C64.9319 49.6731 50.6051 64 32.9319 64V64C15.2588 64 0.931946 49.6731 0.931946 32V32Z" fill="white"/>
</clipPath>
<clipPath id="clip1_9367_44154">
<rect width="64" height="64" fill="white" transform="translate(0.931946)"/>
</clipPath>
</defs>
</svg>
